<svg width="82" height="50" viewBox="0 0 82 50" fill="none" xmlns="http://www.w3.org/2000/svg">
<path d="M24.5675 9.88555C18.0096 9.71126 -1.26279 17.3551 0.0653854 32.2943C1.29672 46.2376 21.5929 46.8351 39.9522 35.3942C47.7829 30.5141 54.6451 22.4469 54.3408 13.471C53.8289 -1.46822 33.588 -0.148589 29.1746 1.02165C72.0636 2.01759 43.1204 42.453 13.2226 40.2619C0.798664 39.4029 -3.72542 18.874 24.5675 9.88555Z" fill="black" fill-opacity="0.7"/>
<path d="M30.3506 32.506C30.1846 31.398 30.8487 27.8998 38.1398 27.8375C42.2904 27.8375 46.4409 27.7255 50.5915 28.0492C62.8079 29.0078 81.3885 36.0914 81.3885 36.0914L80.5307 39.154C80.5307 39.154 65.063 31.4354 52.4869 30.4395C39.9107 29.4435 33.1176 29.6676 33.4912 32.3816C33.8647 35.0955 62.545 29.2443 76.0482 17.3054L76.9059 21.3016C76.9059 21.3016 47.2848 37.7597 32.7302 34.4108C32.1639 34.3526 31.6313 34.1383 31.2053 33.7974C30.7794 33.4564 30.4809 33.0054 30.3506 32.506Z" fill="black" fill-opacity="0.7"/>
<path d="M58.7957 14.7907L63.804 12.8611C61.7703 18.5255 59.363 23.0446 57.2877 28.1613C44.421 59.6954 29.4237 49.3251 31.0009 42.8888C31.1906 42.0653 31.5571 41.2829 32.08 40.5857C31.9693 43.0756 32.5781 45.416 35.7048 46.7108C43.5355 49.9476 52.8189 34.0747 58.7957 14.7907Z" fill="black" fill-opacity="0.7"/>
</svg>
